<svg xmlns="http://www.w3.org/2000/svg" width="47.79" height="41.492" viewBox="0 0 47.79 41.492"><defs><style>.a{fill:#999;}</style></defs><g transform="translate(0 0)"><path class="a" d="M2435.609,3028.258h-35.248a6.278,6.278,0,0,1-6.271-6.271v-22.145a6.278,6.278,0,0,1,6.271-6.271h5.257l2.223-3.739a6.3,6.3,0,0,1,5.39-3.066h9.116a6.3,6.3,0,0,1,5.376,3.043l2.26,3.763h5.627a6.278,6.278,0,0,1,6.271,6.271v22.145A6.278,6.278,0,0,1,2435.609,3028.258Zm-35.248-32.7a4.285,4.285,0,0,0-4.28,4.28v22.145a4.285,4.285,0,0,0,4.28,4.28h35.248a4.285,4.285,0,0,0,4.28-4.28v-22.145a4.285,4.285,0,0,0-4.28-4.28h-5.95a1.429,1.429,0,0,1-1.219-.69l-2.425-4.039a4.3,4.3,0,0,0-3.669-2.077h-9.116a4.3,4.3,0,0,0-3.679,2.093l-2.388,4.017a1.428,1.428,0,0,1-1.222.7Z" transform="translate(-2394.09 -2986.766)"/><g transform="translate(14.111 14.365)"><path class="a" d="M2531.468,3136.219a9.784,9.784,0,1,1,9.784-9.784A9.795,9.795,0,0,1,2531.468,3136.219Zm0-17.577a7.793,7.793,0,1,0,7.793,7.793A7.8,7.8,0,0,0,2531.468,3118.643Z" transform="translate(-2521.684 -3116.652)"/></g></g></svg>