<svg xmlns="http://www.w3.org/2000/svg" width="15.75" height="13.757" viewBox="0 0 15.75 13.757"><defs><style>.a{fill:#43b02a;}</style></defs><path class="a" d="M1713.185,2922.222h-1.6l-.623-1.038a2.31,2.31,0,0,0-1.971-1.115H1706.1a2.309,2.309,0,0,0-1.976,1.124l-.612,1.029h-1.484a2.3,2.3,0,0,0-2.3,2.3v7.006a2.3,2.3,0,0,0,2.3,2.3h11.152a2.3,2.3,0,0,0,2.3-2.3v-7.006A2.3,2.3,0,0,0,1713.185,2922.222Zm-7.974-.385a1.044,1.044,0,0,1,.893-.508h2.884a1.044,1.044,0,0,1,.891.5l.767,1.278a.769.769,0,0,0,.656.371h1.882a1.04,1.04,0,0,1,1.039,1.039v7.006a1.04,1.04,0,0,1-1.039,1.039h-11.152a1.04,1.04,0,0,1-1.039-1.039v-7.006a1.04,1.04,0,0,1,1.039-1.039h1.766a.768.768,0,0,0,.657-.374Z" transform="translate(-1699.734 -2920.069)"/><path class="a" d="M1830.738,3056.775a3.41,3.41,0,1,0-3.41-3.411A3.414,3.414,0,0,0,1830.738,3056.775Zm0-1.26a2.151,2.151,0,1,1,2.151-2.151A2.153,2.153,0,0,1,1830.738,3055.515Z" transform="translate(-1822.863 -3045.409)"/></svg>