<svg xmlns="http://www.w3.org/2000/svg" width="17.558" height="17.558" viewBox="0 0 17.558 17.558"><defs><style>.a{fill:none;}.b{fill:#43b02a;}</style></defs><path class="a" d="M0,0H17.558V17.558H0Z"/><path class="b" d="M14.168,6.926,11.242,9.853h2.195a4.393,4.393,0,0,1-4.389,4.389A4.3,4.3,0,0,1,7,13.73L5.931,14.8A5.842,5.842,0,0,0,14.9,9.853h2.195ZM4.658,9.853A4.393,4.393,0,0,1,9.047,5.463a4.3,4.3,0,0,1,2.048.512l1.068-1.068A5.842,5.842,0,0,0,3.195,9.853H1l2.926,2.926L6.853,9.853Z" transform="translate(-0.268 -1.074)"/></svg>