<svg xmlns="http://www.w3.org/2000/svg" width="14" height="14" viewBox="0 0 14 14"><defs><style>.a{fill:rgba(0,0,0,0.6);}</style></defs><path class="a" d="M15,8a7,7,0,1,0,7,7A7,7,0,0,0,15,8Zm0,12.645A5.645,5.645,0,1,1,20.645,15,5.642,5.642,0,0,1,15,20.645Zm3.027-7.2c0,1.893-2.044,1.922-2.044,2.621v.179a.339.339,0,0,1-.339.339H14.356a.339.339,0,0,1-.339-.339V16c0-1.009.765-1.412,1.343-1.736.5-.278.8-.467.8-.835,0-.487-.621-.81-1.123-.81-.655,0-.957.31-1.381.846a.339.339,0,0,1-.47.06l-.785-.6a.339.339,0,0,1-.075-.462,3.173,3.173,0,0,1,2.839-1.529A2.8,2.8,0,0,1,18.027,13.442Zm-1.842,4.719A1.185,1.185,0,1,1,15,16.976,1.187,1.187,0,0,1,16.185,18.161Z" transform="translate(-8 -8)"/></svg>