<?xml version="1.0" encoding="utf-8"?>
<!-- Generator: Adobe Illustrator 19.0.0, SVG Export Plug-In . SVG Version: 6.00 Build 0)  -->
<svg version="1.1" id="Capa_1" xmlns="http://www.w3.org/2000/svg" xmlns:xlink="http://www.w3.org/1999/xlink" x="0px" y="0px"
	 viewBox="-223.5 367 61.5 54.5" style="enable-background:new -223.5 367 61.5 54.5;" xml:space="preserve">
<style type="text/css">
	.st0{fill:#FFFFFF;}
	.st1{fill:#43B02A;}
</style>
<g transform="matrix(1, 0, 0, 1, -22.5, -19.5)">
	<path class="st0" d="M-178.2,386.5h38.7l0,0V441l0,0h-38.7c-12.6,0-22.8-12.2-22.8-27.3l0,0C-201,398.7-190.8,386.5-178.2,386.5z"
		/>
</g>
<circle class="st1" cx="-197.2" cy="394.2" r="17.8"/>
<path class="st0" d="M-203.1,392.9c1.6,3.1,4.1,5.6,7.2,7.2l2.4-2.4c0.3-0.3,0.7-0.4,1.1-0.3c1.3,0.4,2.6,0.6,3.9,0.6
	c0.6,0,1.1,0.5,1.1,1.1l0,0v3.8c0,0.6-0.5,1.1-1.1,1.1h0c-10.3,0-18.7-8.4-18.7-18.7c0-0.6,0.5-1.1,1.1-1.1h0h3.8
	c0.6,0,1.1,0.5,1.1,1.1l0,0c0,1.3,0.2,2.7,0.6,3.9c0.1,0.4,0,0.8-0.3,1.1L-203.1,392.9z"/>
</svg>
